<svg width="159" height="263" viewBox="0 0 159 263" fill="none" xmlns="http://www.w3.org/2000/svg">
<path d="M40.2383 148.352C39.8765 147.423 40.9525 146.585 41.7584 147.17L42.6704 147.831L45.0628 149.252L48.0397 150.94L50.1127 152.051L52.7155 153.075L57.9213 155.125L63.0726 156.822L68.4888 158.475L78.4176 160.109C79.0905 160.22 79.4518 160.96 79.1281 161.565L72.6144 173.737C72.3895 174.158 71.9021 174.364 71.4479 174.23L65.3051 172.428C65.2397 172.408 65.1764 172.383 65.1163 172.35L58.9879 169.066L52.9981 165.033C52.9494 165.001 52.9038 164.964 52.8618 164.923L48.1325 160.334L43.9428 155.679C43.8943 155.625 43.8519 155.566 43.8163 155.503L41.2865 151.018C41.2634 150.977 41.2431 150.934 41.226 150.89L40.2383 148.352Z" fill="white"/>
<path d="M122.548 148.352C122.91 147.423 121.834 146.585 121.028 147.17L120.116 147.831L117.724 149.252L114.747 150.94L112.674 152.051L110.071 153.075L104.865 155.125L99.714 156.822L94.2978 158.475L83.9265 160.11C83.2388 160.219 82.8756 160.983 83.2225 161.591L90.1641 173.767C90.3951 174.173 90.8729 174.367 91.3175 174.236L97.4815 172.428C97.5469 172.408 97.6102 172.383 97.6703 172.35L103.799 169.066L109.789 165.033C109.837 165.001 109.883 164.964 109.925 164.923L114.654 160.334L118.844 155.679C118.892 155.625 118.935 155.566 118.97 155.503L121.5 151.018C121.523 150.977 121.543 150.934 121.561 150.89L122.548 148.352Z" fill="white"/>
<path d="M72.2351 177.614L81.1179 161.496L90.822 177.788L81.3934 192.471L72.2351 177.614Z" fill="#DC3D3D"/>
<path d="M67.0959 247.995L76.2198 183.581L81.1464 177.032L87.2746 183.614L95.0237 248.079L81.3935 262.955L67.0959 247.995Z" fill="#DC3D3D"/>
<path d="M90.5419 108.166C90.9402 107.784 91.6624 107.676 92.1549 107.926L108.659 116.296L107.01 117.879L90.5064 109.51C90.0139 109.26 89.9374 108.747 90.3357 108.365L90.5419 108.166Z" fill="white"/>
<path d="M108.731 116.266L110.108 116.964C110.601 117.214 110.677 117.726 110.279 118.109L110.073 118.307C109.675 118.69 108.952 118.797 108.46 118.548L107.083 117.849L108.731 116.266Z" fill="#DC3D3D"/>
<ellipse cx="79.5" cy="56.5" rx="79.5" ry="18.5" fill="white"/>
<ellipse cx="81.5" cy="49.5" rx="58.5" ry="12.5" fill="black"/>
<path d="M135 43C135 50.1797 111.284 56 82.0291 56C52.7741 56 29.0583 50.1797 29.0583 43C27.6266 37.4286 52.7741 30 82.0291 30C111.284 30 131.621 31.95 135 43Z" fill="white"/>
<path d="M135 42.8835C135 51.6639 111.284 42.8835 82.0291 42.8835C52.7741 42.8835 27.6266 52.5139 29.0583 42.3147C49.1013 22.7664 12.5 -10.5133 82.5 3.23944C151 -10.9847 122.115 28.7158 135 42.8835Z" fill="white"/>
</svg>
