<svg width="144" height="287" viewBox="0 0 144 287" fill="none" xmlns="http://www.w3.org/2000/svg">
<path d="M44.1532 18.3685C46.6743 17.2297 48.5915 15.0718 49.4257 12.4342V12.4342L49.6648 11.678C50.3758 9.43009 51.3983 7.29293 52.7027 5.32895V5.32895L53.2028 4.72655C54.1733 3.55754 55.3336 2.5602 56.6351 1.77632V1.77632L58.0902 1.11906C58.8659 0.768655 59.6751 0.497623 60.5054 0.3101V0.3101C61.4179 0.104006 62.3505 0 63.286 0H66.7392C67.429 0 68.1166 0.0766831 68.7893 0.228636V0.228636C69.8539 0.469074 70.8679 0.894905 71.7849 1.48666L73.6282 2.67615C74.5285 3.25706 75.3347 3.97205 76.019 4.79639V4.79639C76.6385 5.54258 77.1518 6.37083 77.5445 7.25762L78.2635 8.88158V8.88158C80.3887 13.8734 84.1011 18.0247 88.8254 20.6922L89.1054 20.8504C91.0449 21.9454 92.8331 23.2889 94.4249 24.8468L95.7424 26.1363C98.4941 28.8293 100.839 31.9086 102.703 35.2773L103.169 36.1184L103.607 37.2074C105.061 40.8186 106.245 44.5322 107.151 48.318L111.034 64.5395L112.21 68.7914C112.734 70.6849 113 72.6406 113 74.6053V74.6053V75.6481C113 77.2848 112.517 78.8852 111.611 80.2486V80.2486C111.228 80.8262 110.773 81.3536 110.259 81.8184L109.068 82.8947V82.8947C107.339 84.066 105.384 84.8628 103.33 85.2341L103.169 85.2632L95.9595 87.0395L85.473 88.8158L74.9865 90H63.1892L51.3919 89.4079L40.25 88.2237L32.1594 86.8532C30.5642 86.583 28.9906 86.198 27.4509 85.7012L22.8773 84.2255C21.3682 83.7386 19.9794 82.9372 18.8027 81.8741L18.493 81.5944C18.1427 81.2779 17.825 80.927 17.5447 80.5471V80.5471C16.9583 79.7526 16.5451 78.844 16.3317 77.8799L16.223 77.389C16.0748 76.7194 16 76.0356 16 75.3498V74.4532C16 72.9814 16.1843 71.5154 16.5485 70.0894L17.9662 64.5395L22.3288 46.3114C22.9149 43.8625 23.7052 41.467 24.6916 39.1502V39.1502C25.8851 36.3468 27.3599 33.6716 29.0935 31.1659L29.7635 30.1974L31.5144 27.9829C32.53 26.6983 33.6513 25.5008 34.8665 24.403V24.403C36.2675 23.1373 37.7873 22.0095 39.4048 21.0354L42.8716 18.9474L44.1532 18.3685Z" fill="white"/>
<path d="M10.965 63L10.32 65.9747L9.4236 70.1088C9.16195 71.3155 9.03 72.5467 9.03 73.7815V73.901C9.03 75.353 9.22631 76.8129 9.60615 78.2143V78.2143C10.0756 79.9464 10.8338 81.6063 11.8404 83.0919V83.0919C12.967 84.7546 14.3924 86.1938 16.0441 87.3364L16.7426 87.8197C18.0466 88.7217 19.4495 89.4715 20.9241 90.0544L21.3455 90.221C22.5931 90.7142 23.8788 91.105 25.1898 91.3895L34.185 93.3418L42.8925 94.5316L51.6 95.7215L62.565 96.3165L77.4 95.7215L88.365 94.5316L97.395 92.7468L104.49 90.962L108.066 89.7626C110.386 88.9845 112.515 87.7247 114.313 86.0657L114.45 85.9401C115.966 84.5412 117.205 82.8683 118.101 81.0095V81.0095C118.911 79.3278 119.428 77.5199 119.629 75.6641L119.97 72.519L119.002 67.7595L118.035 63L120.145 64.1678C120.887 64.5785 121.598 65.0444 122.27 65.5614V65.5614C124.156 67.0106 125.716 68.8398 126.849 70.9304L127.71 72.519L127.816 72.7646C128.597 74.5648 129 76.5061 129 78.4684V78.4684L128.693 80.7317C128.469 82.3864 127.997 83.9979 127.294 85.5122L127.24 85.6269C126.696 86.7994 126.007 87.8998 125.192 88.9028V88.9028C124.721 89.4816 124.21 90.026 123.661 90.5318L123.478 90.7013C122.008 92.0566 120.336 93.1732 118.52 94.0103L118.281 94.1208C116.832 94.7891 115.311 95.2884 113.747 95.6088L112.895 95.7834C111.166 96.138 109.473 96.6536 107.839 97.3233L104.49 98.6962L100.62 100.481L96.75 102.266L96.5326 102.386C94.5304 103.494 92.4469 104.448 90.3 105.241V105.241L85.14 107.025L77.4 108.81L72.5625 109.405L67.725 110H61.275L54.825 109.405L50.31 108.81L43.86 107.025L36.765 104.646L31.605 102.266L26.445 99.8861L25.5117 99.3942C23.1291 98.1384 20.6344 97.108 18.06 96.3165V96.3165L17.0528 96.0842C14.2916 95.4475 11.6032 94.5285 9.03 93.3418V93.3418L7.71945 92.5359C6.02709 91.4952 4.53676 90.1572 3.32035 88.5864L3.23246 88.4729C2.37152 87.3612 1.66641 86.1368 1.13683 84.8342V84.8342C0.386122 82.9877 0 81.013 0 79.0198V79.0198C0 77.4711 0.237379 75.9172 0.695608 74.4379V74.4379C1.0878 73.1718 1.64328 71.9487 2.34132 70.822L2.53815 70.5043C3.42196 69.0776 4.50951 67.7646 5.74308 66.6267V66.6267C6.63544 65.8036 7.61572 65.0595 8.64985 64.4236L10.965 63Z" fill="white"/>
<path d="M49.02 38.74H58.48L64.5 33L70.52 38.74H79.98V46.94L86 54.32L79.98 60.06V68.26H71.38L64.5 74L58.48 68.26H49.02V60.06L43 53.5L49.02 46.94V38.74Z" fill="black"/>
<path d="M55.64 44.5H61.36L65 41L68.64 44.5H74.36V49.5L78 54L74.36 57.5V62.5H69.16L65 66L61.36 62.5H55.64V57.5L52 53.5L55.64 49.5V44.5Z" fill="white"/>
<circle cx="64.5" cy="53.5" r="2.5" fill="black"/>
<path d="M125 207L129.041 219.438H142.119L131.539 227.125L135.58 239.562L125 231.875L114.42 239.562L118.461 227.125L107.881 219.438H120.959L125 207Z" fill="#DC3D3D"/>
<ellipse cx="125" cy="207.5" rx="3" ry="2.5" fill="#DC3D3D"/>
<ellipse cx="135" cy="238" rx="3" ry="2" fill="#DC3D3D"/>
<ellipse cx="115" cy="238" rx="3" ry="2" fill="#DC3D3D"/>
<ellipse cx="108.5" cy="220" rx="2.5" ry="2" fill="#DC3D3D"/>
<ellipse cx="141.5" cy="220" rx="2.5" ry="2" fill="#DC3D3D"/>
<circle cx="125" cy="224" r="3" fill="black"/>
<path d="M30.1727 175.481C29.8485 174.524 30.9991 173.684 31.763 174.32L32.1179 174.616L34.1502 176.002L36.6789 177.649L38.4398 178.733L40.6508 179.732L45.0729 181.732L49.4487 183.387L53.9825 184.977C54.0271 184.993 54.0729 185.005 54.1196 185.014L62.4406 186.586C63.0591 186.703 63.3838 187.378 63.1071 187.972L57.6219 199.745C57.3978 200.226 56.857 200.471 56.3762 200.309L51.3621 198.619C51.2952 198.596 51.2313 198.566 51.1714 198.53L45.9789 195.334L40.8954 191.403C40.8511 191.368 40.8099 191.33 40.7724 191.288L36.7577 186.814L33.1976 182.271C33.1572 182.219 33.1222 182.164 33.0932 182.105L30.9128 177.665L30.1727 175.481Z" fill="white"/>
<path d="M99.8498 175.481C100.174 174.524 99.0233 173.684 98.2594 174.32L97.9046 174.616L95.8723 176.002L93.3435 177.649L91.5827 178.733L89.3716 179.732L84.9496 181.732L80.5738 183.387L76.0434 184.976C75.9965 184.992 75.9483 185.005 75.8992 185.014L67.2066 186.588C66.5737 186.703 66.2467 187.399 66.5444 187.999L72.3902 199.777C72.6217 200.243 73.1528 200.475 73.6244 200.316L78.6603 198.619C78.7272 198.596 78.7912 198.566 78.8511 198.53L84.0436 195.334L89.127 191.403C89.1714 191.368 89.2126 191.33 89.2501 191.288L93.2647 186.814L96.8249 182.271C96.8653 182.219 96.9002 182.164 96.9293 182.105L99.1096 177.665L99.8498 175.481Z" fill="white"/>
<path d="M57.2317 203.673L64.7772 187.948L73.0204 203.843L65.0113 218.168L57.2317 203.673Z" fill="white"/>
<path d="M52.8661 272.339L60.6164 209.495L64.8014 203.106L70.007 209.527L76.5895 272.422L65.0113 286.935L52.8661 272.339Z" fill="white"/>
</svg>
