<svg width="116" height="247" viewBox="0 0 116 247" fill="none" xmlns="http://www.w3.org/2000/svg">
<path d="M55.5 132.5C51.1 148.9 68 168.5 86.5 167C121 161 118.5 206 106.5 217.5C91.334 232.034 42 270.5 15.5 221.5" stroke="white" stroke-width="2"/>
<path d="M8 32.5L18.5 29.5L30.5 28L43.5 26.5L56 25L69.5 26.5L82.5 28L94 29.5L105.5 32.5L107 41.5L82.5 38.5L69.5 37.5H56H43.5L30.5 38.5L7 41.5L8 32.5Z" fill="white"/>
<circle cx="57" cy="18" r="18" fill="black"/>
<circle cx="57" cy="18" r="16" fill="white"/>
<circle cx="57" cy="18" r="6" fill="black"/>
<path d="M112.5 75C112.5 98.6762 87.0091 133 55.6482 133C24.2873 133 0 97.6956 0 75C5.11055 99.2086 24.9849 133 55.6482 129.47C82.3367 135.017 106.822 99.2086 112.5 75Z" fill="white"/>
<path d="M11.7753 74C11.7753 76.7614 13.032 77 9.60101 77C6.12761 75 -2.97196e-05 77.7614 -2.97196e-05 75C-2.97196e-05 72.2386 6.01451 75 9.60101 71C13.032 71 11.7753 71.2386 11.7753 74Z" fill="white"/>
<path d="M100.5 73.5C100.5 76.2614 99.2432 76.5 102.674 76.5C106.148 74.5 112.275 77.2614 112.275 74.5C112.275 71.7386 106.261 74.5 102.674 70.5C99.2432 70.5 100.5 70.7386 100.5 73.5Z" fill="white"/>
<path d="M48 129.5L52 129H60L64.5 129.5L64 132.5L60 134H52L48 132.5V129.5Z" fill="white"/>
<path d="M0 74.5L1 74L1.5 76L2.5 85L0 77.5V74.5Z" fill="white"/>
<path d="M112.5 74.5L111.5 74L111 76L110 83.5L112.5 77.5V74.5Z" fill="white"/>
<path d="M8.5 217.5L15.5 214L17.7331 220.931L13.8252 223.097L8.5 217.5Z" fill="white"/>
<path d="M2.16295 217.99L19.4924 208L15.6888 213.559L15.8939 215.583L10.1174 218.913L8.24718 217.696L2.16295 217.99Z" fill="white"/>
<rect x="13" y="223.347" width="5.4443" height="1" transform="rotate(-28 13 223.347)" fill="black"/>
<rect x="53" y="134" width="4" height="1" fill="black"/>
</svg>
