<svg width="144" height="260" viewBox="0 0 144 260" fill="none" xmlns="http://www.w3.org/2000/svg">
<path d="M134 185L143.526 193.25H124.474L134 185Z" fill="#DC3D3D"/>
<path d="M127 183L138.258 193.5H115.742L127 183Z" fill="black"/>
<path d="M126 183L137.258 193.5H114.742L126 183Z" fill="#DC3D3D"/>
<path d="M122 55.0463C113.317 112.845 134.591 2.67609 61.2178 22.7287C-9.11572 2.67609 0.435747 111.272 0.435761 55.0463C0.435761 24.6451 0.435677 0 61.2178 0C122 0 122 24.6451 122 55.0463Z" fill="white"/>
<path d="M59.6642 248.801C60.4242 249.483 61.5758 249.483 62.3358 248.801L74.4342 237.945C91.9777 222.202 102 199.742 102 176.17V157.193C102 155.716 100.456 154.749 99.1273 155.393L85.8584 161.828C82.9596 163.234 79.9317 164.356 76.8169 165.179L62.5331 168.954C61.5283 169.22 60.4717 169.22 59.4669 168.954L45.1831 165.179C42.0683 164.356 39.0404 163.234 36.1416 161.828L22.8727 155.393C21.5445 154.749 20 155.716 20 157.193V176.17C20 199.742 30.0223 222.202 47.5657 237.945L59.6642 248.801Z" fill="white"/>
<path d="M49.6499 101.599C49.4745 101.117 48.9628 100.846 48.4654 100.972L40.7711 102.914L34.68 104.175L21.9786 107.843L2.36453 114.088C1.566 114.342 1.03386 115.096 1.06198 115.934L1.08283 116.555C1.10051 117.081 1.20133 117.602 1.38155 118.097L2.91738 122.317C3.14238 122.935 3.5057 123.493 3.9796 123.95C4.4173 124.371 5.06265 124.494 5.62463 124.263L25.0498 116.281L37.1369 110.926L42.6138 107.977L49.7566 104.519C50.2183 104.296 50.4361 103.759 50.2606 103.277L49.6499 101.599Z" fill="white"/>
<line y1="-0.5" x2="17.1946" y2="-0.5" transform="matrix(-0.128851 0.991664 0.989279 0.146035 48.7192 96)" stroke="black"/>
<line y1="-0.5" x2="17.1946" y2="-0.5" transform="matrix(-0.128851 0.991664 0.989279 0.146035 7.71924 109)" stroke="black"/>
<line y1="-0.5" x2="17.1946" y2="-0.5" transform="matrix(-0.128851 0.991664 0.989279 0.146035 17.7192 106)" stroke="black"/>
<line y1="-0.5" x2="17.1946" y2="-0.5" transform="matrix(-0.128851 0.991664 0.989279 0.146035 40.7192 99)" stroke="black"/>
<line y1="-0.5" x2="17.1946" y2="-0.5" transform="matrix(-0.128851 0.991664 0.989279 0.146035 29.532 100.316)" stroke="black"/>
<path d="M0.997979 117.686C0.847132 117.272 0.779924 116.832 0.800241 116.391L0.805045 116.287C0.827724 115.795 0.973954 115.317 1.23023 114.896L1.3859 114.692C1.56002 114.464 1.79595 114.291 2.06571 114.192L5.71941 124.231L5.28233 124.408C4.91118 124.558 4.49405 124.545 4.13303 124.372C3.76277 124.194 3.45017 123.916 3.23124 123.568L3.16266 123.46C3.06301 123.302 2.98053 123.133 2.91661 122.958L0.997979 117.686Z" fill="#DC3D3D"/>
<path d="M53.8661 175.334C53.3525 174.34 53.3381 173.101 53.8283 172.091L58.3072 162.864C59.3555 160.705 62.0194 160.68 63.0978 162.819L67.7481 172.044C68.269 173.077 68.2537 174.362 67.7085 175.378L60.6685 188.5L53.8661 175.334Z" fill="black"/>
<path d="M48.3928 245.234L56.2335 182.389L61.0734 176L65.5 182.389L72.3929 245.316L61.0733 260L48.3928 245.234Z" fill="white"/>
<path d="M48.3928 242.234L56.2335 179.389L61.0734 173L65.5 179.389L72.3929 242.316L61.0733 257L48.3928 242.234Z" fill="black"/>
<path d="M54.7661 175.264C54.3765 174.325 54.4023 173.224 54.8351 172.31L58.3249 164.946C59.3596 162.762 62.0421 162.719 63.128 164.869L66.8507 172.239C67.3312 173.19 67.3596 174.361 66.9259 175.343L66.5882 176.107C64.153 181.616 57.358 181.516 55.0443 175.935L54.7661 175.264Z" fill="white"/>
</svg>
