<svg width="171" height="285" viewBox="0 0 171 285" fill="none" xmlns="http://www.w3.org/2000/svg">
<path d="M0 44.0183L85.5 0.536126L171 44.0183L85.5 85.3149L0 44.0183Z" fill="white"/>
<ellipse cx="86" cy="89.5" rx="46" ry="20.5" fill="black"/>
<path d="M138 61.3973C138 69.4621 114.719 76 86 76C57.2812 76 34 69.4621 34 61.3973C34 53.3324 57.2812 50 86 50C114.719 50 138 53.3324 138 61.3973Z" fill="white"/>
<rect x="34" y="59" width="104" height="25" fill="white"/>
<path d="M138 82.3973C138 90.4621 114.719 97 86 97C57.2812 97 34 90.4621 34 82.3973C34 74.3324 57.2812 71 86 71C114.719 71 138 74.3324 138 82.3973Z" fill="black"/>
<path d="M86 182.5L138 161V226.5L86 256V182.5Z" fill="white"/>
<path d="M84 182.5L31 161V226.5L84 256V182.5Z" fill="white"/>
<path d="M87 186.5L145.5 165V230.5L87 260V186.5Z" fill="black"/>
<path d="M83.5 187L25 165.5V231L83.5 260.5V187Z" fill="black"/>
<path d="M87 187.5L145.5 166V231.5L87 261V187.5Z" fill="white"/>
<path d="M83.5 188L25 166.5V232L83.5 261.5V188Z" fill="white"/>
<path d="M0 44L6 46.7193L4.5 49.0559V61.4639V70.488L6 75L4.5 73.872L3 75L1.5 73.872L0 75L1.5 70.488L3 61.4639V47.9279L0 44Z" fill="#DC3D3D"/>
<path d="M84 182.5L85 185L86 182.5V256L87 255.417V262L86 264V268.5V274V282L88 285H82.5L85 282L84.5 274V268.5V264L83.5 262.5V255.5L84 256V182.5Z" fill="#DC3D3D"/>
</svg>
