<svg width="201" height="252" viewBox="0 0 201 252" fill="none" xmlns="http://www.w3.org/2000/svg">
<ellipse cx="100.5" cy="49" rx="58.5" ry="49" fill="white"/>
<path d="M159 51C159 69.8304 152.837 87.8895 141.866 101.205C130.895 114.52 116.015 122 100.5 122C84.9848 122 70.1051 114.52 59.1343 101.205C48.1634 87.8895 42 69.8304 42 51L100.5 51H159Z" fill="white"/>
<path d="M88 55.0292C88 59.4635 80.8366 55.0292 72 55.0292C63.1634 55.0292 56 59.4635 56 55.0292C56 50.5948 63.1634 47 72 47C80.8366 47 88 50.5948 88 55.0292Z" fill="black"/>
<path d="M146 55.0292C146 59.4635 138.837 55.0292 130 55.0292C121.163 55.0292 114 59.4635 114 55.0292C114 50.5948 121.163 47 130 47C138.837 47 146 50.5948 146 55.0292Z" fill="black"/>
<path d="M145 80.5C134.23 97.559 113.995 114 102.507 114C91.0191 114 68.5519 97.559 58.5 80.5C53.767 72.4675 73.4027 104.645 102.507 104.645C131.611 104.645 150.009 72.5663 145 80.5Z" fill="black"/>
<path d="M43.4929 147.926C41.1517 146.338 40.589 143.123 42.2517 140.833L44.8183 137.299C46.5005 134.983 49.7765 134.553 51.9989 136.357L171.949 233.718C174.122 235.482 174.428 238.69 172.627 240.833L165.293 249.562C163.275 251.964 159.573 251.93 157.597 249.492L135.743 222.532C135.584 222.336 135.412 222.153 135.226 221.984L84.6338 175.883C84.4574 175.723 84.2697 175.575 84.0722 175.441L43.4929 147.926Z" fill="white"/>
<path d="M45.3323 130.581L68.4879 149.743L58.1624 156.073L42.6852 170.379L37.2107 201.158L1.20339 169.527L45.3323 130.581Z" fill="white"/>
<path d="M5.1909 165.979L37.91 197.265L37.0678 201.925L0.810572 169.78L5.1909 165.979Z" fill="#DC3D3D"/>
<rect x="91.4969" y="198.069" width="14" height="32" transform="rotate(-131 91.4969 198.069)" fill="black"/>
<path d="M157.538 145.716C159.879 144.129 160.442 140.913 158.779 138.624L156.212 135.09C154.53 132.774 151.254 132.344 149.032 134.148L29.0819 231.509C26.9087 233.273 26.6026 236.48 28.4031 238.623L35.7372 247.353C37.7554 249.755 41.4574 249.721 43.434 247.283L65.2878 220.322C65.4462 220.127 65.619 219.944 65.8048 219.775L116.397 173.674C116.573 173.513 116.761 173.366 116.958 173.232L157.538 145.716Z" fill="white"/>
<path d="M155.698 128.372L132.543 147.534L142.868 153.864L158.345 168.17L163.82 198.948L199.827 167.317L155.698 128.372Z" fill="white"/>
<path d="M195.84 163.77L163.3 196L163.963 199.716L200.22 167.571L195.84 163.77Z" fill="#DC3D3D"/>
<ellipse cx="71" cy="24" rx="4" ry="6" fill="black"/>
<ellipse cx="101" cy="39" rx="4" ry="6" fill="black"/>
<ellipse cx="101" cy="64.5" rx="4" ry="6.5" fill="black"/>
<ellipse cx="101" cy="89" rx="4" ry="6" fill="black"/>
<ellipse cx="66" cy="72" rx="4" ry="6" fill="black"/>
<ellipse cx="135" cy="72" rx="4" ry="6" fill="black"/>
<ellipse cx="128" cy="24" rx="4" ry="6" fill="black"/>
</svg>
