<svg width="146" height="183" viewBox="0 0 146 183" fill="none" xmlns="http://www.w3.org/2000/svg">
<path d="M146 59.0043C136.581 56.9588 113.317 51.5043 72.9999 51.5043C32.6831 51.5043 6.47567 57.6406 0 59.0043C0 53.7325 32.6831 44.0043 72.9999 44.0043C113.317 44.0043 146 53.7325 146 59.0043Z" fill="white"/>
<path d="M126 47.584C115.783 44.8043 116.786 42.0043 73.3173 42.0043C29.8489 42.0043 25.8855 45.484 19.5 47.584C19.5 -1.41602 20 0.00426431 73.3173 0.00426431C126 0.00426431 126 0.00426483 126 47.584Z" fill="white"/>
<path d="M28 54.0043L24 58.5876V66.2959V74.0043L22 66.5043L20 54.8376L28 54.0043Z" fill="white"/>
<path d="M118 54.0043L122 58.5876V66.2959V74.0043L124 66.5043L126 54.8376L118 54.0043Z" fill="white"/>
<circle cx="94" cy="80" r="15" fill="black" stroke="white" stroke-width="2"/>
<circle cx="50" cy="80" r="15" fill="black" stroke="white" stroke-width="2"/>
<path d="M49.9072 109.125C51.596 107.497 53.7388 106.419 56.0529 106.033C56.6832 105.928 57.3211 105.875 57.9602 105.875H61.3592C62.4515 105.875 63.5424 105.794 64.6227 105.632L65.7084 105.469C67.2319 105.24 68.7272 104.852 70.1697 104.311L71 104V108.5L69.5 109L69.1361 109.073C67.7155 109.357 66.2703 109.5 64.8216 109.5H59.5H54L49 110L49.9072 109.125Z" fill="white"/>
<path d="M94.0928 109.125C92.404 107.497 90.2612 106.419 87.9471 106.033C87.3168 105.928 86.6789 105.875 86.0398 105.875H82.6408C81.5485 105.875 80.4576 105.794 79.3773 105.632L78.2916 105.469C76.7681 105.24 75.2728 104.852 73.8303 104.311L73 104V108.5L74.5 109L74.8639 109.073C76.2845 109.357 77.7297 109.5 79.1784 109.5H84.5H90L95 110L94.0928 109.125Z" fill="white"/>
<path d="M69 120L69.375 120.45L69.75 120L70.125 120.45L70.5 120L70.875 120.45L71.25 120L71.625 120.45L72 120L72.375 120.45L72.75 120L73.125 120.45L73.5 120L73.875 120.45L74.25 120L74.625 120.45L75 120L73.875 124.05L72 129C72 129 70.7581 126.018 70.125 124.05C69.6222 122.487 69 120 69 120Z" fill="white"/>
<path d="M35 165C35 161.134 38.134 158 42 158H47.5528C49.4888 158 51.3961 158.468 53.1119 159.365L72.5 169.5L88.0906 159.809C89.9922 158.626 92.1866 158 94.4258 158H103C106.866 158 110 161.134 110 165V176C110 179.866 106.866 183 103 183H94.8975C92.9932 183 91.1162 182.547 89.4217 181.678L72.5 173L55.5783 181.678C53.8838 182.547 52.0068 183 50.1025 183H42C38.134 183 35 179.866 35 176V165Z" fill="#DC3D3D"/>
<circle cx="72" cy="171" r="7" fill="black"/>
<circle cx="72" cy="171" r="6" fill="#DC3D3D"/>
<line x1="68" y1="80" x2="76" y2="80" stroke="white" stroke-width="2"/>
</svg>
