<svg width="169" height="186" viewBox="0 0 169 186" fill="none" xmlns="http://www.w3.org/2000/svg">
<path d="M41 12.5801C41 14.8364 41.5556 17.058 42.6177 19.0487L42.8909 19.5609C43.6475 20.9789 44.6127 22.2754 45.7541 23.407L45.8702 23.522C47.4105 25.049 49.2265 26.2699 51.2219 27.1199L54.2661 28.4167L59.5726 29.9667L61.1583 30.2369C64.1268 30.7427 67.1551 30.7931 70.1388 30.3864C72.1858 30.1073 74.198 29.615 76.1426 28.9175L76.846 28.6651C79.2219 27.8129 81.5037 26.7182 83.6553 25.3984L88 22.7333V6.71667L83.4516 4.13334C80.1753 2.75917 76.7668 1.72444 73.2794 1.04535L73.2177 1.03333L72.2767 0.890814C68.3612 0.297777 64.4067 0 60.4465 0H58.4355L52.5991 0.795574C51.439 0.953711 50.2968 1.22349 49.1886 1.60117L46.8942 2.38303C45.5138 2.85346 44.2737 3.66332 43.2881 4.7382C41.8164 6.34302 41 8.44131 41 10.6187V12.5801Z" fill="white"/>
<path d="M134 12.5801C134 14.8364 133.444 17.058 132.382 19.0486L132.109 19.5609C131.352 20.9789 130.387 22.2754 129.246 23.4069L129.129 23.5221C127.589 25.0491 125.773 26.2699 123.778 27.1199L120.733 28.4167L115.426 29.9667L113.84 30.2369C110.872 30.7427 107.843 30.7931 104.859 30.3864C102.812 30.1073 100.8 29.615 98.8551 28.9175L98.1533 28.6657C95.7761 27.8131 93.4932 26.7177 91.3407 25.3969L87 22.7333V6.71667L91.5456 4.13334C94.8222 2.75917 98.2309 1.72444 101.718 1.04536L101.78 1.03333L102.722 0.890699C106.637 0.297739 110.592 0 114.551 0H116.563L122.4 0.795582C123.56 0.953714 124.703 1.22349 125.811 1.60115L128.106 2.38309C129.486 2.85348 130.726 3.6633 131.712 4.73812C133.183 6.34299 134 8.44139 134 10.6189V12.5801Z" fill="white"/>
<path d="M78 16.4286C78 20.0184 72.0386 22 64.6849 22C57.3312 22 51 17.5422 51 13.9524C51 10.3625 57.3312 9 64.6849 9C72.0386 9 78 12.8387 78 16.4286Z" fill="black"/>
<path d="M97 16.4286C97 20.0184 102.961 22 110.315 22C117.669 22 124 17.5422 124 13.9524C124 10.3625 117.669 9 110.315 9C102.961 9 97 12.8387 97 16.4286Z" fill="black"/>
<path d="M33.8763 55.3139C35.0114 55.8136 36.0818 56.4489 37.064 57.206L37.5686 57.5949C40.3731 59.7565 42.573 62.6048 43.9559 65.8646L44.9568 68.2241L48.067 75.5561L54.4883 89.5199L57.7999 95.4312C58.9613 97.5043 60.2965 99.4751 61.7912 101.322L66.7294 107.425L82.1416 123.967L98.5975 139.293L121.536 159.887L142.06 178.315C143.648 179.74 145.54 180.787 147.591 181.375C149.349 181.879 151.189 182.036 153.007 181.838L154.377 181.688C155.452 181.571 156.513 181.351 157.546 181.031L158.359 180.78C159.319 180.483 160.317 180.32 161.322 180.298C163.524 180.248 165.69 180.869 167.531 182.078L168.798 182.91L163.664 183.416C161.846 183.595 160.048 183.945 158.296 184.463L156.133 185.102C153.295 185.94 150.302 186.114 147.385 185.612C145.93 185.361 144.509 184.944 143.149 184.37L142.874 184.253C140.716 183.342 138.719 182.089 136.958 180.545L110.738 157.549L81.86 132.221L69.0566 118.7L58.7119 107.776C57.0757 106.048 55.5894 104.184 54.2689 102.204L51.8785 98.6211L46.581 88.0101L42.6078 80.0519L38.0455 72.5516C37.0037 70.8389 35.6317 69.3506 34.0093 68.1731L32.9501 67.4044C30.7624 65.8167 28.086 65.0493 25.3895 65.2364C23.9308 65.3376 22.5048 65.7157 21.1876 66.3505L16.3192 68.6967C14.9858 69.3393 13.7426 70.1544 12.6215 71.1209C10.6948 72.782 9.16798 74.8567 8.15498 77.1902L5.59919 83.0777L0.500535 96.0112L0.79021 86.277C0.865206 83.7568 1.17215 81.249 1.70716 78.7851L2.09239 77.011C2.74099 74.0241 3.8504 71.1562 5.38082 68.5103C6.59304 66.4146 8.05894 64.4762 9.74537 62.7391L10.384 62.0813C12.8441 59.5472 15.7809 57.5244 19.0254 56.1291L20.7277 55.3971C22.6419 54.5739 24.692 54.1123 26.7744 54.0356L27.1236 54.0227C29.4432 53.9372 31.7519 54.3787 33.8763 55.3139Z" fill="white"/>
</svg>
