<svg width="193" height="225" viewBox="0 0 193 225" fill="none" xmlns="http://www.w3.org/2000/svg">
<path d="M58.0569 205.894C58.6003 202.498 61.53 200 64.969 200H65.5925C71.4472 200 77.2183 201.389 82.4316 204.054L86.3493 206.056C92.9463 209.428 100.836 209.049 107.08 205.06C112.252 201.756 118.261 200 124.399 200H128.031C131.47 200 134.4 202.498 134.943 205.894L135.267 207.918C135.753 210.953 135.753 214.047 135.267 217.082L134.943 219.106C134.4 222.502 131.47 225 128.031 225H125.142C119.138 225 113.218 223.536 107.904 220.739C101.064 217.139 92.9001 217.05 85.9859 220.507L84.8124 221.094C79.6747 223.663 74.0096 225 68.2655 225H64.969C61.53 225 58.6003 222.502 58.0569 219.106L57.7331 217.082C57.2474 214.047 57.2474 210.953 57.7331 207.918L58.0569 205.894Z" fill="#DC3D3D"/>
<circle cx="97" cy="213" r="7" fill="#11131A"/>
<circle cx="97" cy="213" r="6" fill="#DC3D3D"/>
<path d="M193 73C180.548 70.5455 149.795 64 96.4999 64C43.2044 64 8.5603 71.3636 0 73C0 66.6738 43.2044 55 96.4999 55C149.795 55 193 66.6738 193 73Z" fill="#ABB0C5"/>
<path d="M167 59C153.473 55.5534 154.801 52.0816 97.2511 52.0816C39.7014 52.0816 34.4541 56.3962 26 59C26 -1.75575 26.662 0.00528738 97.2511 0.00528738C167 0.00528738 167 0.00528802 167 59Z" fill="#ABB0C5"/>
<path d="M37 66L31.5 71.7292V81.3646V91L28.75 81.625L26 67.0417L37 66Z" fill="#ABB0C5"/>
<path d="M156 67L161.5 72.7292V82.3646V92L164.25 82.625L167 68.0417L156 67Z" fill="#ABB0C5"/>
<path d="M64.9798 135.164C67.3542 133.137 70.2516 131.821 73.3398 131.365C74.1425 131.247 74.9528 131.188 75.7641 131.188H82.4545L86.9842 130.586C88.3553 130.404 89.7062 130.093 91.0189 129.658L93 129V134.25L91.0227 134.833L89.6298 135.08C88.3639 135.304 87.0808 135.417 85.7952 135.417H77.8409H70.5909L64 136L64.9798 135.164Z" fill="#ABB0C5"/>
<path d="M125.02 135.164C122.646 133.137 119.748 131.821 116.66 131.365C115.857 131.247 115.047 131.188 114.236 131.188H107.545L103.016 130.586C101.645 130.404 100.294 130.093 98.9811 129.658L97 129V134.25L98.9773 134.833L100.37 135.08C101.636 135.304 102.919 135.417 104.205 135.417H112.159H119.409L126 136L125.02 135.164Z" fill="#ABB0C5"/>
<path d="M91 150L91.5 150.55L92 150L92.5 150.55L93 150L93.5 150.55L94 150L94.5 150.55L95 150L95.5 150.55L96 150L96.5 150.55L97 150L97.5 150.55L98 150L98.5 150.55L99 150L97.5 154.95L95 161C95 161 93.3442 157.355 92.5 154.95C91.8296 153.04 91 150 91 150Z" fill="#ABB0C5"/>
</svg>
